<?xml version="1.0" standalone="no"?>
<!DOCTYPE svg PUBLIC "-//W3C//DTD SVG 20010904//EN"
 "http://www.w3.org/TR/2001/REC-SVG-20010904/DTD/svg10.dtd">
<svg version="1.0" xmlns="http://www.w3.org/2000/svg"
     width="150" height="150"
     viewBox="0 0 2000 2000"
     preserveAspectRatio="xMidYMid meet">

  <!--
       Logika transformacji, od prawej do lewej (bo w SVG transform
       stosuje się w kolejności odwrotnej do zapisu):
         1)  translate(-1360, -10408)
             – przesuwa minimalne X i Y ścieżek do (0,0),
               tak żeby bounding box zaczynał się w (0,0).

         2)  scale(0.29, -0.29)
             – zmniejsza kształt do ~29% szerokości/wysokości
               i odwraca oś Y (bo oryginalnie rysunek jest „do góry nogami”
               względem standardowego układu SVG). 
               Wynikowa szerokość ~1765, wysokość ~665.

         3)  translate(117, 667)
             – przesuwa już przeskalowany kształt tak,
               by był wyśrodkowany w obszarze 2000×2000:
               • ok. 117 pikseli luzu z lewej/prawej,
               • ok. 667 pikseli luzu z góry/dołu.

       Efekt: bounding box kształtu kończy się w obrębie (0..2000),
       więc nic nie zostaje obcięte, a samo logo jest wystarczająco duże.
  -->
  <g id="logoGroup"
     transform="translate(117,667) scale(0.29,-0.29) translate(-1360,-10408)">

    <!-- Top part of the circle -->
    <path id="circleTop" opacity="0"
      d="M4164 12700 c-734 -51 -1414 -331 -1967 -809 -146 -127 -397 -389
         -397 -415 0 -3 38 -6 84 -6 l84 0 77 84 c43 47 129 131 192 188 338 303 709
         520 1138 663 653 218 1361 218 2020 0 479 -159 923 -439 1283 -809 l123 -127
         87 3 86 3 -64 75 c-102 120 -298 309 -433 418 -494 396 -1087 646 -1707 716
         -172 19 -450 27 -606 16z">
      <animate attributeName="opacity"
               values="0;1;1"
               keyTimes="0;0.4;1"
               dur="3s"
               begin="0s"
               repeatCount="indefinite"/>
    </path>

    <!-- Right part of letter H -->
    <path id="rightH" opacity="0"
      d="M5409 10408 l-235 -883 -1367 -3 -1366 -2 -10 -38 c-62 -231 -692
         -2570 -697 -2584 -5 -17 29 -18 908 -16 l913 3 230 865 c127 476 234 874 238
         883 6 16 42 17 462 17 452 0 456 0 450 -20 -5 -17 -446 -1666 -461 -1727 l-6
         -23 910 0 c859 0 911 1 916 18 20 64 1166 4366 1166 4378 0 12 -130 14 -908
         14 l-907 0 -236 -882z">
      <animate attributeName="opacity"
               values="0;1;1"
               keyTimes="0;0.4;1"
               dur="3s"
               begin="0.9s"
               repeatCount="indefinite"/>
    </path>

    <!-- Upper left part of letter H -->
    <path id="leftTopH" opacity="0" fill="hsl(14, 100%, 49%)"
      d="M1632 10943 c178 -186 460 -481 627 -655 l303 -318 908 0 c857 0
         909 1 914 18 3 9 80 296 171 637 91 341 168 628 171 638 5 16 -81 17 -1706
         17 l-1712 0 324 -337z">
      <animate attributeName="opacity"
               values="0;1;1"
               keyTimes="0;0.4;1"
               dur="3s"
               begin="1.2s"
               repeatCount="indefinite"/>
    </path>

    <!-- Lower left part of the circle -->
    <path id="circleLeft" opacity="0"
      d="M1360 10788 c-303 -646 -392 -1384 -250 -2088 64 -313 184 -641 343
         -935 70 -129 218 -357 226 -349 3 3 15 41 26 84 l21 78 -68 108 c-124 199
         -242 454 -322 699 -175 539 -202 1130 -75 1695 39 172 121 419 194 583 l57
         127 -47 55 c-25 30 -48 55 -49 55 -2 0 -27 -51 -56 -112z">
      <animate attributeName="opacity"
               values="0;1;1"
               keyTimes="0;0.4;1"
               dur="3s"
               begin="0.6s"
               repeatCount="indefinite"/>
    </path>

    <!-- Lower right part of the circle -->
    <path id="circleBottomRight" opacity="0"
      d="M7447 10495 l-28 -106 40 -138 c51 -178 86 -359 106 -544 17 -168 20
         -487 5 -638 -76 -760 -395 -1434 -931 -1969 -134 -135 -136 -136 -153 -204
         -20 -83 -35 -112 -73 -148 -41 -39 -74 -48 -169 -48 l-85 0 -117 -70 c-368
         -222 -759 -362 -1202 -432 -127 -19 -183 -22 -455 -22 -331 -1 -416 7 -666 60
         -339 71 -696 212 -993 392 l-119 73 -116 -3 -116 -3 120 -81 c459 -309 909
         -482 1466 -561 176 -24 661 -25 839 0 643 90 1175 317 1680 716 122 97 404
         379 501 501 396 501 629 1045 714 1670 22 157 30 533 16 695 -22 250 -62
         467 -126 680 -44 144 -95 285 -104 285 -4 0 -19 -47 -34 -105z">
      <animate attributeName="opacity"
               values="0;1;1"
               keyTimes="0;0.4;1"
               dur="3s"
               begin="0.2s"
               repeatCount="indefinite"/>
    </path>

  </g>
</svg>
